<svg id="Layer_1" data-name="Layer 1" xmlns="http://www.w3.org/2000/svg" xmlns:xlink="http://www.w3.org/1999/xlink" viewBox="0 0 355.9019 140.9612">
  <defs>
    <linearGradient id="linear-gradient" x1="21.8801" y1="-894.8228" x2="71.7292" y2="-816.9076" gradientTransform="matrix(1, 0, 0, -1, 0, -790)" gradientUnits="userSpaceOnUse">
      <stop offset="0" stop-color="#49c8f5"/>
      <stop offset="0.9966" stop-color="#196aab"/>
    </linearGradient>
    <linearGradient id="linear-gradient-2" x1="72.6194" y1="-808.7602" x2="119.9549" y2="-887.932" xlink:href="#linear-gradient"/>
    <linearGradient id="linear-gradient-3" x1="127.903" y1="44.5689" x2="124.3908" y2="115.6907" gradientTransform="matrix(1, 0, 0, 1, 0, 0)" xlink:href="#linear-gradient"/>
  </defs>
  <g>
    <g id="type">
      <path id="type_CompoundPathItem_" data-name="type &lt;CompoundPathItem&gt;" d="M181.5191,39.0247H169.5454l-1.9629,4.3183h-4.6777l10.2715-22.9h4.7109l10.2735,22.9H183.45Zm-5.9873-13.7735-4.252,9.75h8.5059Z" style="fill: #1b75bc"/>
      <path id="type_CompoundPathItem_2" data-name="type &lt;CompoundPathItem&gt;" d="M192.9048,27.2141v8.4414c0,2.4531,1.3408,4.3184,3.8926,4.3184a4.2439,4.2439,0,0,0,4.1221-4.5157V27.2141h3.958V43.3762H201.312l-.2617-2.1924a7.1886,7.1886,0,0,1-5.4639,2.4209c-3.8593,0-6.6738-2.9121-6.6738-7.917V27.2141Z" style="fill: #1b75bc"/>
      <path id="type_CompoundPathItem_3" data-name="type &lt;CompoundPathItem&gt;" d="M218.9458,31.5a5.4394,5.4394,0,0,0-3.9912-1.4394c-1.8975,0-2.9443.5889-2.9443,1.6025,0,1.0469.9492,1.6367,3.01,1.7676,3.043.1953,6.9024.8828,6.9024,5.168,0,2.8467-2.3223,5.3008-6.9356,5.3008a9.44,9.44,0,0,1-7.4589-2.879l1.9628-2.8466a8.8468,8.8468,0,0,0,5.5625,2.2568c1.5039.0332,2.9112-.7519,2.9112-1.93,0-1.1123-.916-1.57-3.2061-1.7012-3.0429-.2285-6.6738-1.3418-6.6738-5.0058,0-3.7285,3.86-5.0371,6.8047-5.0371a8.6609,8.6609,0,0,1,6.2812,2.126Z" style="fill: #1b75bc"/>
      <path id="type_CompoundPathItem_4" data-name="type &lt;CompoundPathItem&gt;" d="M230.1021,22.6672v4.58h4.4492v3.4356h-4.4824v6.9677a2.0031,2.0031,0,0,0,2.0937,2.29,4.5662,4.5662,0,0,0,1.9307-.49l1.1123,3.4024a8.9234,8.9234,0,0,1-3.3047.6865c-3.5.1309-5.79-1.8643-5.79-5.8887V30.6829h-3.01V27.2473h3.01V23.093Z" style="fill: #1b75bc"/>
      <path id="type_CompoundPathItem_5" data-name="type &lt;CompoundPathItem&gt;" d="M241.8794,22.6672a2.3556,2.3556,0,0,1-4.7109,0A2.3556,2.3556,0,0,1,241.8794,22.6672ZM237.5288,27.15V43.343H241.52V27.15Z" style="fill: #1b75bc"/>
      <path id="type_CompoundPathItem_6" data-name="type &lt;CompoundPathItem&gt;" d="M256.9946,43.343v-8.44c0-2.4541-1.3417-4.3184-3.8935-4.3184a4.2429,4.2429,0,0,0-4.1221,4.5147V43.343H245.02V27.1819h3.5664l.2618,2.1924a7.2727,7.2727,0,0,1,5.3-2.4219c3.7949,0,6.8369,2.8467,6.8369,7.918V43.343Z" style="fill: #1b75bc"/>
      <path id="type_CompoundPathItem_7" data-name="type &lt;CompoundPathItem&gt;" d="M181.5191,72.7952H169.5454l-1.9629,4.3183h-4.6777l10.2715-22.9h4.7109l10.2735,22.9H183.45Zm-5.9873-13.7725-4.252,9.748h8.5059Z" style="fill: #1b75bc"/>
      <path id="type_CompoundPathItem_8" data-name="type &lt;CompoundPathItem&gt;" d="M193.1665,60.9856l.294,1.8642a4.7548,4.7548,0,0,1,4.5478-2.29,6.12,6.12,0,0,1,4.1543,1.5371l-1.7988,3.4688a3.9862,3.9862,0,0,0-2.8789-1.0469,3.721,3.721,0,0,0-4.0244,4.0889v8.5058h-3.9912V60.9856Z" style="fill: #1b75bc"/>
      <path id="type_CompoundPathItem_9" data-name="type &lt;CompoundPathItem&gt;" d="M210.3081,56.4377v4.58h4.4492v3.4346h-4.4814v6.9687a2.0027,2.0027,0,0,0,2.0937,2.29,4.5533,4.5533,0,0,0,1.93-.4912l1.1123,3.4023a8.9074,8.9074,0,0,1-3.3037.6875c-3.501.1309-5.791-1.8652-5.791-5.8887V64.4524h-3.01V61.0178h3.01V56.8625Z" style="fill: #1b75bc"/>
      <path id="type_CompoundPathItem_10" data-name="type &lt;CompoundPathItem&gt;" d="M222.0864,56.4377a2.3556,2.3556,0,0,1-4.7109,0A2.3556,2.3556,0,0,1,222.0864,56.4377Zm-4.3515,4.4815V77.1135h3.9912V60.9192Z" style="fill: #1b75bc"/>
      <path id="type_CompoundPathItem_11" data-name="type &lt;CompoundPathItem&gt;" d="M226.6333,77.1135V64.7141h-3.01v-3.5h3.01v-1.08c0-4.3183,2.9121-6.3134,6.15-6.3134a7.7816,7.7816,0,0,1,4.1875,1.3085l-1.4726,2.9776a4.44,4.44,0,0,0-2.4532-.8516c-1.374,0-2.4209.916-2.4209,2.8789v1.08h4.7432v3.5h-4.7432V77.1135Z" style="fill: #1b75bc"/>
      <path id="type_CompoundPathItem_12" data-name="type &lt;CompoundPathItem&gt;" d="M242.5337,56.4377a2.3556,2.3556,0,0,1-4.7109,0A2.3556,2.3556,0,0,1,242.5337,56.4377Zm-4.3516,4.4815V77.1135h3.9913V60.9192Z" style="fill: #1b75bc"/>
      <path id="type_CompoundPathItem_13" data-name="type &lt;CompoundPathItem&gt;" d="M259.61,75.052a8.2977,8.2977,0,0,1-6.2149,2.5527c-4.6787,0-8.5722-2.8144-8.5722-8.539s3.8935-8.5391,8.5722-8.5391a7.6561,7.6561,0,0,1,5.8223,2.3887l-2.5186,2.65a4.8925,4.8925,0,0,0-3.2392-1.2764,4.5368,4.5368,0,0,0-4.6445,4.7764,4.394,4.394,0,0,0,4.58,4.7109,4.8476,4.8476,0,0,0,3.5332-1.3418Z" style="fill: #1b75bc"/>
      <path id="type_CompoundPathItem_14" data-name="type &lt;CompoundPathItem&gt;" d="M265.7271,56.4377a2.3556,2.3556,0,0,1-4.711,0A2.3556,2.3556,0,0,1,265.7271,56.4377Zm-4.3506,4.4815V77.1135h3.9912V60.9192Z" style="fill: #1b75bc"/>
      <path id="type_CompoundPathItem_15" data-name="type &lt;CompoundPathItem&gt;" d="M281.7583,60.9856h3.8272V77.1135h-3.7627l-.1953-2.3554c-.9161,1.8974-3.4356,2.8134-5.2344,2.8466-4.7774.0323-8.3106-2.9121-8.3106-8.5722,0-5.5606,3.6973-8.4727,8.4082-8.4395a5.9205,5.9205,0,0,1,5.1368,2.6172Zm-9.6836,8.0469a4.62,4.62,0,0,0,4.7754,4.9082c6.2813,0,6.2813-9.7823,0-9.7823A4.5925,4.5925,0,0,0,272.0747,69.0325Z" style="fill: #1b75bc"/>
      <path id="type_CompoundPathItem_16" data-name="type &lt;CompoundPathItem&gt;" d="M292.9146,54.2454V77.1135h-3.959V54.2454Z" style="fill: #1b75bc"/>
      <path id="type_CompoundPathItem_17" data-name="type &lt;CompoundPathItem&gt;" d="M165.2925,110.885v-22.9h4.2861v22.9Z" style="fill: #1b75bc"/>
      <path id="type_CompoundPathItem_18" data-name="type &lt;CompoundPathItem&gt;" d="M185.2154,110.885v-8.44c0-2.4531-1.3409-4.3184-3.8926-4.3184a4.243,4.243,0,0,0-4.1221,4.5147v8.2441h-3.958V94.7239h3.5654l.2617,2.1914a7.2745,7.2745,0,0,1,5.3-2.42c3.795,0,6.8379,2.8457,6.8379,7.916v8.4736Z" style="fill: #1b75bc"/>
      <path id="type_CompoundPathItem_19" data-name="type &lt;CompoundPathItem&gt;" d="M197.5825,90.2092v4.58h4.4493v3.4346h-4.4825v6.9687a2.0036,2.0036,0,0,0,2.0938,2.29,4.5534,4.5534,0,0,0,1.9306-.4912l1.1124,3.4023a8.9051,8.9051,0,0,1-3.3047.6875c-3.5.1309-5.79-1.8652-5.79-5.8887V98.2239h-3.01V94.7893h3.01V90.634Z" style="fill: #1b75bc"/>
      <path id="type_CompoundPathItem_20" data-name="type &lt;CompoundPathItem&gt;" d="M208.4116,104.2434c.2618,1.9961,1.9952,3.4356,4.81,3.4356a6.66,6.66,0,0,0,4.3184-1.5049l2.5508,2.5185a9.9017,9.9017,0,0,1-6.9356,2.6172c-5.56,0-8.8652-3.4346-8.8652-8.6035,0-4.9072,3.3369-8.44,8.5713-8.44,5.3974,0,8.7675,3.3369,8.1455,9.9775Zm8.7676-3.3037c-.2617-2.0938-1.8974-3.1406-4.1875-3.1406a4.3444,4.3444,0,0,0-4.5146,3.1406Z" style="fill: #1b75bc"/>
      <path id="type_CompoundPathItem_21" data-name="type &lt;CompoundPathItem&gt;" d="M228.04,88.0168V110.885h-3.958V88.0168Z" style="fill: #1b75bc"/>
      <path id="type_CompoundPathItem_22" data-name="type &lt;CompoundPathItem&gt;" d="M235.4986,88.0168V110.885h-3.9581V88.0168Z" style="fill: #1b75bc"/>
      <path id="type_CompoundPathItem_23" data-name="type &lt;CompoundPathItem&gt;" d="M243.3521,90.2092a2.3556,2.3556,0,0,1-4.711,0A2.3556,2.3556,0,0,1,243.3521,90.2092Zm-4.3516,4.4815V110.885h3.9912V94.6907Z" style="fill: #1b75bc"/>
      <path id="type_CompoundPathItem_24" data-name="type &lt;CompoundPathItem&gt;" d="M259.2505,93.12l2.9453,2.2246-1.8,2.291a6.8728,6.8728,0,0,1,1.7012,4.7754c0,1.9961-.7529,4.81-3.4024,6.0195a5.4269,5.4269,0,0,1,3.337,5.333c0,4.4492-3.4024,7.1973-8.08,7.1973s-8.18-2.8467-8.18-7.1973h3.959c0,2.0938,1.93,3.4678,4.2207,3.4678,2.289,0,4.0888-1.2432,4.0888-3.4678s-2.0937-3.2392-4.0888-3.2392c-5.0391,0-8.18-3.0743-8.18-8.1133a7.8659,7.8659,0,0,1,8.18-8.1778,6.4211,6.4211,0,0,1,3.6963.9161Zm-9.5195,9.291a4.2127,4.2127,0,1,0,8.4082,0,4.217,4.217,0,1,0-8.4082,0Z" style="fill: #1b75bc"/>
      <path id="type_CompoundPathItem_25" data-name="type &lt;CompoundPathItem&gt;" d="M268.0513,104.2434c.2617,1.9961,1.9961,3.4356,4.8086,3.4356a6.6579,6.6579,0,0,0,4.3183-1.5049l2.5528,2.5185a9.9033,9.9033,0,0,1-6.9356,2.6172c-5.5625,0-8.8662-3.4346-8.8662-8.6035,0-4.9072,3.3369-8.44,8.5713-8.44,5.3984,0,8.7676,3.3369,8.1465,9.9775Zm8.7676-3.3037c-.2618-2.0938-1.8975-3.1406-4.1875-3.1406a4.3446,4.3446,0,0,0-4.5147,3.1406Z" style="fill: #1b75bc"/>
      <path id="type_CompoundPathItem_26" data-name="type &lt;CompoundPathItem&gt;" d="M295.5962,110.885v-8.44c0-2.4531-1.3408-4.3184-3.8926-4.3184a4.243,4.243,0,0,0-4.122,4.5147v8.2441h-3.958V94.7239h3.5654l.2617,2.1914a7.2743,7.2743,0,0,1,5.3-2.42c3.7949,0,6.8379,2.8457,6.8379,7.916v8.4736Z" style="fill: #1b75bc"/>
      <path id="type_CompoundPathItem_27" data-name="type &lt;CompoundPathItem&gt;" d="M316.8618,108.8235a8.2974,8.2974,0,0,1-6.2148,2.5527c-4.6787,0-8.5723-2.8144-8.5723-8.539s3.8936-8.5391,8.5723-8.5391a7.6562,7.6562,0,0,1,5.8223,2.3887l-2.5186,2.65a4.8928,4.8928,0,0,0-3.2393-1.2764,4.5368,4.5368,0,0,0-4.6445,4.7764,4.3942,4.3942,0,0,0,4.58,4.7109,4.8476,4.8476,0,0,0,3.5332-1.3418Z" style="fill: #1b75bc"/>
      <path id="type_CompoundPathItem_28" data-name="type &lt;CompoundPathItem&gt;" d="M322.6851,104.2434c.2617,1.9961,1.9951,3.4356,4.81,3.4356a6.66,6.66,0,0,0,4.3184-1.5049l2.5508,2.5185a9.9017,9.9017,0,0,1-6.9356,2.6172c-5.56,0-8.8652-3.4346-8.8652-8.6035,0-4.9072,3.3369-8.44,8.5713-8.44,5.3975,0,8.7676,3.3369,8.1455,9.9775Zm8.7676-3.3037c-.2618-2.0938-1.8975-3.1406-4.1875-3.1406a4.3446,4.3446,0,0,0-4.5147,3.1406Z" style="fill: #1b75bc"/>
    </g>
    <g id="logoMark">
      <path id="logoMark_PathItem_" data-name="logoMark &lt;PathItem&gt;" d="M37.6129,111.2666,91.252,20H56.2932L20,81.3783Z" style="fill: url(#linear-gradient)"/>
      <path id="logoMark_PathItem_2" data-name="logoMark &lt;PathItem&gt;" d="M127.2785,81.3783,91.252,20H56.3077l53.7106,91.2368Z" style="fill: url(#linear-gradient-2)"/>
      <path id="logoMark_PathItem_3" data-name="logoMark &lt;PathItem&gt;" d="M73.6393,80.311h17.88L82.7126,95.789l-9.0733,15.4781L64.8329,95.789,55.76,80.311Z" style="fill: #fbcd75"/>
      <path id="logoMark_PathItem_4" data-name="logoMark &lt;PathItem&gt;" d="M126.077,49.3556A14.6773,14.6773,0,1,0,111.4,34.6784,14.6771,14.6771,0,0,0,126.077,49.3556Z" style="fill: #fbcd75"/>
      <path id="logoMark_PathItem_5" data-name="logoMark &lt;PathItem&gt;" d="M142.2226,51.8027h-32.29v59.4641h32.29Z" style="fill: url(#linear-gradient-3)"/>
    </g>
  </g>
</svg>
